# xmcd
#
# Track frame offsets:
#  150
#  22950
#  46157
#  68625
#  88275
#  111865
#  128707
#  153167
#  168097
#  189632
#  207365
#  234967
#  258642
#  278692
#  296232
#  314712
#
# Disc length: 4378 seconds
#
# Revision: 0
# Processed by: cddbd v1.5.1PL2 Copyright (c) Steve Scherf et al.
# Submitted via: Collectorz.com_Music_Collector 6.9
#
DISCID=e2111810
DTITLE=Various Artist - Super Dance Traxx Vol. 1
DYEAR=1995
DGENRE=Trance
TTITLE0=Superfly - Is It Love
TTITLE1=Zooom! - Love Me Or Leave Me
TTITLE2=Powersound - Party Up (Uh Huh Uh)
TTITLE3=Fixed 3 Tha Lixs - Family
TTITLE4=No Smoking - If You Think You Know How To Love Me
TTITLE5=T-Red - Destiny
TTITLE6=Rita Oooh. - Dangers Of Lust
TTITLE7=Charles - Rap O Clap O
TTITLE8=Joi Samuels - No 95!
TTITLE9=Tania Dee - You Are My Inspiration
TTITLE10=Saada Bonaire - So Many Dreams
TTITLE11=Merimaid - Right Here, Right Now
TTITLE12=Cali C. - Time
TTITLE13=Conversion - Hey Now
TTITLE14=Synapse - Dancing With You
TTITLE15=Solid 4 - Kiss Me (In The Cityjungle)
EXTD=
EXTT0=
EXTT1=
EXTT2=
EXTT3=
EXTT4=
EXTT5=
EXTT6=
EXTT7=
EXTT8=
EXTT9=
EXTT10=
EXTT11=
EXTT12=
EXTT13=
EXTT14=
EXTT15=
PLAYORDER=
